<mxfile host="app.diagrams.net" agent="Mozilla/5.0 (Windows NT 10.0; Win64; x64) AppleWebKit/537.36 (KHTML, like Gecko) Chrome/132.0.0.0 Safari/537.36" version="24.7.12">
  <diagram name="Page-1" id="3N9HZ53g9Y2OPHwRrNhl">
    <mxGraphModel dx="1247" dy="711" grid="1" gridSize="10" guides="1" tooltips="1" connect="1" arrows="1" fold="1" page="1" pageScale="1" pageWidth="827" pageHeight="1169" math="0" shadow="0">
      <root>
        <mxCell id="0" />
        <mxCell id="1" parent="0" />
        <mxCell id="cruECCJp9XkMZrPJovNE-418" value="Claim Management" style="whiteSpace=wrap;strokeWidth=2;" vertex="1" parent="1">
          <mxGeometry x="343" y="20" width="152" height="34" as="geometry" />
        </mxCell>
        <mxCell id="cruECCJp9XkMZrPJovNE-419" value="Claim" style="whiteSpace=wrap;strokeWidth=2;" vertex="1" parent="1">
          <mxGeometry x="20" y="104" width="56" height="34" as="geometry" />
        </mxCell>
        <mxCell id="cruECCJp9XkMZrPJovNE-420" value="Complaint" style="whiteSpace=wrap;strokeWidth=2;" vertex="1" parent="1">
          <mxGeometry x="126" y="104" width="89" height="34" as="geometry" />
        </mxCell>
        <mxCell id="cruECCJp9XkMZrPJovNE-421" value="Complaint Types" style="whiteSpace=wrap;strokeWidth=2;" vertex="1" parent="1">
          <mxGeometry x="264" y="104" width="133" height="34" as="geometry" />
        </mxCell>
        <mxCell id="cruECCJp9XkMZrPJovNE-422" value="Counter-Claim" style="whiteSpace=wrap;strokeWidth=2;" vertex="1" parent="1">
          <mxGeometry x="447" y="104" width="118" height="34" as="geometry" />
        </mxCell>
        <mxCell id="cruECCJp9XkMZrPJovNE-423" value="Reason" style="whiteSpace=wrap;strokeWidth=2;" vertex="1" parent="1">
          <mxGeometry x="615" y="104" width="65" height="34" as="geometry" />
        </mxCell>
        <mxCell id="cruECCJp9XkMZrPJovNE-424" value="Opinion Types" style="whiteSpace=wrap;strokeWidth=2;" vertex="1" parent="1">
          <mxGeometry x="730" y="104" width="114" height="34" as="geometry" />
        </mxCell>
        <mxCell id="cruECCJp9XkMZrPJovNE-425" value="Files and Attachments" style="whiteSpace=wrap;strokeWidth=2;" vertex="1" parent="1">
          <mxGeometry x="1108" y="20" width="174" height="34" as="geometry" />
        </mxCell>
        <mxCell id="cruECCJp9XkMZrPJovNE-426" value="Attach" style="whiteSpace=wrap;strokeWidth=2;" vertex="1" parent="1">
          <mxGeometry x="895" y="104" width="63" height="34" as="geometry" />
        </mxCell>
        <mxCell id="cruECCJp9XkMZrPJovNE-427" value="Opinion Attachments" style="whiteSpace=wrap;strokeWidth=2;" vertex="1" parent="1">
          <mxGeometry x="1008" y="104" width="165" height="34" as="geometry" />
        </mxCell>
        <mxCell id="cruECCJp9XkMZrPJovNE-428" value="Entity Attachments" style="whiteSpace=wrap;strokeWidth=2;" vertex="1" parent="1">
          <mxGeometry x="1223" y="104" width="153" height="34" as="geometry" />
        </mxCell>
        <mxCell id="cruECCJp9XkMZrPJovNE-429" value="Attachment Type" style="whiteSpace=wrap;strokeWidth=2;" vertex="1" parent="1">
          <mxGeometry x="1426" y="104" width="138" height="34" as="geometry" />
        </mxCell>
        <mxCell id="cruECCJp9XkMZrPJovNE-430" value="User Management" style="whiteSpace=wrap;strokeWidth=2;" vertex="1" parent="1">
          <mxGeometry x="1702" y="20" width="143" height="34" as="geometry" />
        </mxCell>
        <mxCell id="cruECCJp9XkMZrPJovNE-431" value="Users" style="whiteSpace=wrap;strokeWidth=2;" vertex="1" parent="1">
          <mxGeometry x="1614" y="104" width="54" height="34" as="geometry" />
        </mxCell>
        <mxCell id="cruECCJp9XkMZrPJovNE-432" value="User Genders" style="whiteSpace=wrap;strokeWidth=2;" vertex="1" parent="1">
          <mxGeometry x="1718" y="104" width="111" height="34" as="geometry" />
        </mxCell>
        <mxCell id="cruECCJp9XkMZrPJovNE-433" value="User Types" style="whiteSpace=wrap;strokeWidth=2;" vertex="1" parent="1">
          <mxGeometry x="1878" y="104" width="91" height="34" as="geometry" />
        </mxCell>
        <mxCell id="cruECCJp9XkMZrPJovNE-490" style="edgeStyle=orthogonalEdgeStyle;rounded=0;orthogonalLoop=1;jettySize=auto;html=1;exitX=0.25;exitY=1;exitDx=0;exitDy=0;entryX=0.5;entryY=0;entryDx=0;entryDy=0;" edge="1" parent="1" source="cruECCJp9XkMZrPJovNE-434" target="cruECCJp9XkMZrPJovNE-488">
          <mxGeometry relative="1" as="geometry" />
        </mxCell>
        <mxCell id="cruECCJp9XkMZrPJovNE-434" value="Entity Management" style="whiteSpace=wrap;strokeWidth=2;" vertex="1" parent="1">
          <mxGeometry x="2128" y="20" width="154" height="34" as="geometry" />
        </mxCell>
        <mxCell id="cruECCJp9XkMZrPJovNE-435" value="Entity" style="whiteSpace=wrap;strokeWidth=2;" vertex="1" parent="1">
          <mxGeometry x="2000" y="104" width="59" height="34" as="geometry" />
        </mxCell>
        <mxCell id="cruECCJp9XkMZrPJovNE-436" value="Entity Attachments" style="whiteSpace=wrap;strokeWidth=2;" vertex="1" parent="1">
          <mxGeometry x="2160" y="104" width="121" height="34" as="geometry" />
        </mxCell>
        <mxCell id="cruECCJp9XkMZrPJovNE-437" value="Category Entity Province" style="whiteSpace=wrap;strokeWidth=2;" vertex="1" parent="1">
          <mxGeometry x="2331" y="104" width="192" height="34" as="geometry" />
        </mxCell>
        <mxCell id="cruECCJp9XkMZrPJovNE-438" value="Jurisdiction Management" style="whiteSpace=wrap;strokeWidth=2;" vertex="1" parent="1">
          <mxGeometry x="2592" y="20" width="194" height="34" as="geometry" />
        </mxCell>
        <mxCell id="cruECCJp9XkMZrPJovNE-439" value="Jurisdiction" style="whiteSpace=wrap;strokeWidth=2;" vertex="1" parent="1">
          <mxGeometry x="2573" y="104" width="99" height="34" as="geometry" />
        </mxCell>
        <mxCell id="cruECCJp9XkMZrPJovNE-440" value="District" style="whiteSpace=wrap;strokeWidth=2;" vertex="1" parent="1">
          <mxGeometry x="2721" y="104" width="68" height="34" as="geometry" />
        </mxCell>
        <mxCell id="cruECCJp9XkMZrPJovNE-441" value="Time and State Management" style="whiteSpace=wrap;strokeWidth=2;" vertex="1" parent="1">
          <mxGeometry x="2929" y="20" width="221" height="34" as="geometry" />
        </mxCell>
        <mxCell id="cruECCJp9XkMZrPJovNE-442" value="Claim Lifespan" style="whiteSpace=wrap;strokeWidth=2;" vertex="1" parent="1">
          <mxGeometry x="2839" y="104" width="120" height="34" as="geometry" />
        </mxCell>
        <mxCell id="cruECCJp9XkMZrPJovNE-443" value="States" style="whiteSpace=wrap;strokeWidth=2;" vertex="1" parent="1">
          <mxGeometry x="3010" y="104" width="60" height="34" as="geometry" />
        </mxCell>
        <mxCell id="cruECCJp9XkMZrPJovNE-444" value="Transaction" style="whiteSpace=wrap;strokeWidth=2;" vertex="1" parent="1">
          <mxGeometry x="3119" y="104" width="98" height="34" as="geometry" />
        </mxCell>
        <mxCell id="cruECCJp9XkMZrPJovNE-445" value="Notifications and Voting" style="whiteSpace=wrap;strokeWidth=2;" vertex="1" parent="1">
          <mxGeometry x="3309" y="20" width="187" height="34" as="geometry" />
        </mxCell>
        <mxCell id="cruECCJp9XkMZrPJovNE-446" value="Notification" style="whiteSpace=wrap;strokeWidth=2;" vertex="1" parent="1">
          <mxGeometry x="3267" y="104" width="100" height="34" as="geometry" />
        </mxCell>
        <mxCell id="cruECCJp9XkMZrPJovNE-447" value="Suggestion Voting" style="whiteSpace=wrap;strokeWidth=2;" vertex="1" parent="1">
          <mxGeometry x="3417" y="104" width="140" height="34" as="geometry" />
        </mxCell>
        <mxCell id="cruECCJp9XkMZrPJovNE-448" value="Suggestions and Opinions" style="whiteSpace=wrap;strokeWidth=2;" vertex="1" parent="1">
          <mxGeometry x="3697" y="20" width="195" height="34" as="geometry" />
        </mxCell>
        <mxCell id="cruECCJp9XkMZrPJovNE-449" value="Suggestions" style="whiteSpace=wrap;strokeWidth=2;" vertex="1" parent="1">
          <mxGeometry x="3608" y="104" width="98" height="34" as="geometry" />
        </mxCell>
        <mxCell id="cruECCJp9XkMZrPJovNE-450" value="Opinions" style="whiteSpace=wrap;strokeWidth=2;" vertex="1" parent="1">
          <mxGeometry x="3756" y="104" width="77" height="34" as="geometry" />
        </mxCell>
        <mxCell id="cruECCJp9XkMZrPJovNE-451" value="Opinion Attachments" style="whiteSpace=wrap;strokeWidth=2;" vertex="1" parent="1">
          <mxGeometry x="3883" y="104" width="165" height="34" as="geometry" />
        </mxCell>
        <mxCell id="cruECCJp9XkMZrPJovNE-487" style="edgeStyle=orthogonalEdgeStyle;rounded=0;orthogonalLoop=1;jettySize=auto;html=1;exitX=1;exitY=1;exitDx=0;exitDy=0;" edge="1" parent="1" source="cruECCJp9XkMZrPJovNE-452" target="cruECCJp9XkMZrPJovNE-486">
          <mxGeometry relative="1" as="geometry">
            <Array as="points">
              <mxPoint x="4313" y="50" />
              <mxPoint x="4410" y="50" />
            </Array>
          </mxGeometry>
        </mxCell>
        <mxCell id="cruECCJp9XkMZrPJovNE-452" value="System and Configuration" style="whiteSpace=wrap;strokeWidth=2;" vertex="1" parent="1">
          <mxGeometry x="4115" y="20" width="198" height="34" as="geometry" />
        </mxCell>
        <mxCell id="cruECCJp9XkMZrPJovNE-453" value="System" style="whiteSpace=wrap;strokeWidth=2;" vertex="1" parent="1">
          <mxGeometry x="4098" y="104" width="65" height="34" as="geometry" />
        </mxCell>
        <mxCell id="cruECCJp9XkMZrPJovNE-454" value="Terms and Conditions" style="whiteSpace=wrap;strokeWidth=2;" vertex="1" parent="1">
          <mxGeometry x="4180" y="104" width="169" height="34" as="geometry" />
        </mxCell>
        <mxCell id="cruECCJp9XkMZrPJovNE-455" value="Emergencies" style="whiteSpace=wrap;strokeWidth=2;" vertex="1" parent="1">
          <mxGeometry x="4657" y="20" width="106" height="34" as="geometry" />
        </mxCell>
        <mxCell id="cruECCJp9XkMZrPJovNE-456" value="Emergency Contacts" style="whiteSpace=wrap;strokeWidth=2;" vertex="1" parent="1">
          <mxGeometry x="4630" y="104" width="161" height="34" as="geometry" />
        </mxCell>
        <mxCell id="cruECCJp9XkMZrPJovNE-457" value="" style="curved=1;startArrow=none;endArrow=block;exitX=0;exitY=0.75;entryX=0.5;entryY=0;rounded=0;" edge="1" parent="1" source="cruECCJp9XkMZrPJovNE-418" target="cruECCJp9XkMZrPJovNE-419">
          <mxGeometry relative="1" as="geometry">
            <Array as="points">
              <mxPoint x="48" y="79" />
            </Array>
          </mxGeometry>
        </mxCell>
        <mxCell id="cruECCJp9XkMZrPJovNE-458" value="" style="curved=1;startArrow=none;endArrow=block;exitX=0;exitY=0.88;entryX=0.49;entryY=0;rounded=0;" edge="1" parent="1" source="cruECCJp9XkMZrPJovNE-418" target="cruECCJp9XkMZrPJovNE-420">
          <mxGeometry relative="1" as="geometry">
            <Array as="points">
              <mxPoint x="170" y="79" />
            </Array>
          </mxGeometry>
        </mxCell>
        <mxCell id="cruECCJp9XkMZrPJovNE-459" value="" style="curved=1;startArrow=none;endArrow=block;exitX=0.26;exitY=1;entryX=0.5;entryY=0;rounded=0;" edge="1" parent="1" source="cruECCJp9XkMZrPJovNE-418" target="cruECCJp9XkMZrPJovNE-421">
          <mxGeometry relative="1" as="geometry">
            <Array as="points">
              <mxPoint x="331" y="79" />
            </Array>
          </mxGeometry>
        </mxCell>
        <mxCell id="cruECCJp9XkMZrPJovNE-460" value="" style="curved=1;startArrow=none;endArrow=block;exitX=0.73;exitY=1;entryX=0.5;entryY=0;rounded=0;" edge="1" parent="1" source="cruECCJp9XkMZrPJovNE-418" target="cruECCJp9XkMZrPJovNE-422">
          <mxGeometry relative="1" as="geometry">
            <Array as="points">
              <mxPoint x="506" y="79" />
            </Array>
          </mxGeometry>
        </mxCell>
        <mxCell id="cruECCJp9XkMZrPJovNE-461" value="" style="curved=1;startArrow=none;endArrow=block;exitX=1;exitY=0.91;entryX=0.5;entryY=0;rounded=0;" edge="1" parent="1" source="cruECCJp9XkMZrPJovNE-418" target="cruECCJp9XkMZrPJovNE-423">
          <mxGeometry relative="1" as="geometry">
            <Array as="points">
              <mxPoint x="648" y="79" />
            </Array>
          </mxGeometry>
        </mxCell>
        <mxCell id="cruECCJp9XkMZrPJovNE-462" value="" style="curved=1;startArrow=none;endArrow=block;exitX=1;exitY=0.75;entryX=0.5;entryY=0;rounded=0;" edge="1" parent="1" source="cruECCJp9XkMZrPJovNE-418" target="cruECCJp9XkMZrPJovNE-424">
          <mxGeometry relative="1" as="geometry">
            <Array as="points">
              <mxPoint x="787" y="79" />
            </Array>
          </mxGeometry>
        </mxCell>
        <mxCell id="cruECCJp9XkMZrPJovNE-463" value="" style="curved=1;startArrow=none;endArrow=block;exitX=0;exitY=0.9;entryX=0.5;entryY=0;rounded=0;" edge="1" parent="1" source="cruECCJp9XkMZrPJovNE-425" target="cruECCJp9XkMZrPJovNE-426">
          <mxGeometry relative="1" as="geometry">
            <Array as="points">
              <mxPoint x="926" y="79" />
            </Array>
          </mxGeometry>
        </mxCell>
        <mxCell id="cruECCJp9XkMZrPJovNE-464" value="" style="curved=1;startArrow=none;endArrow=block;exitX=0.26;exitY=1;entryX=0.5;entryY=0;rounded=0;" edge="1" parent="1" source="cruECCJp9XkMZrPJovNE-425" target="cruECCJp9XkMZrPJovNE-427">
          <mxGeometry relative="1" as="geometry">
            <Array as="points">
              <mxPoint x="1091" y="79" />
            </Array>
          </mxGeometry>
        </mxCell>
        <mxCell id="cruECCJp9XkMZrPJovNE-465" value="" style="curved=1;startArrow=none;endArrow=block;exitX=0.74;exitY=1;entryX=0.5;entryY=0;rounded=0;" edge="1" parent="1" source="cruECCJp9XkMZrPJovNE-425" target="cruECCJp9XkMZrPJovNE-428">
          <mxGeometry relative="1" as="geometry">
            <Array as="points">
              <mxPoint x="1299" y="79" />
            </Array>
          </mxGeometry>
        </mxCell>
        <mxCell id="cruECCJp9XkMZrPJovNE-466" value="" style="curved=1;startArrow=none;endArrow=block;exitX=1;exitY=0.86;entryX=0.5;entryY=0;rounded=0;" edge="1" parent="1" source="cruECCJp9XkMZrPJovNE-425" target="cruECCJp9XkMZrPJovNE-429">
          <mxGeometry relative="1" as="geometry">
            <Array as="points">
              <mxPoint x="1495" y="79" />
            </Array>
          </mxGeometry>
        </mxCell>
        <mxCell id="cruECCJp9XkMZrPJovNE-467" value="" style="curved=1;startArrow=none;endArrow=block;exitX=0.12;exitY=1;entryX=0.5;entryY=0;rounded=0;" edge="1" parent="1" source="cruECCJp9XkMZrPJovNE-430" target="cruECCJp9XkMZrPJovNE-431">
          <mxGeometry relative="1" as="geometry">
            <Array as="points">
              <mxPoint x="1641" y="79" />
            </Array>
          </mxGeometry>
        </mxCell>
        <mxCell id="cruECCJp9XkMZrPJovNE-468" value="" style="curved=1;startArrow=none;endArrow=block;exitX=0.5;exitY=1;entryX=0.5;entryY=0;rounded=0;" edge="1" parent="1" source="cruECCJp9XkMZrPJovNE-430" target="cruECCJp9XkMZrPJovNE-432">
          <mxGeometry relative="1" as="geometry">
            <Array as="points" />
          </mxGeometry>
        </mxCell>
        <mxCell id="cruECCJp9XkMZrPJovNE-469" value="" style="curved=1;startArrow=none;endArrow=block;exitX=0.92;exitY=1;entryX=0.51;entryY=0;rounded=0;" edge="1" parent="1" source="cruECCJp9XkMZrPJovNE-430" target="cruECCJp9XkMZrPJovNE-433">
          <mxGeometry relative="1" as="geometry">
            <Array as="points">
              <mxPoint x="1924" y="79" />
            </Array>
          </mxGeometry>
        </mxCell>
        <mxCell id="cruECCJp9XkMZrPJovNE-470" value="" style="curved=1;startArrow=none;endArrow=block;exitX=0.09;exitY=1;entryX=0.49;entryY=0;rounded=0;" edge="1" parent="1" source="cruECCJp9XkMZrPJovNE-434" target="cruECCJp9XkMZrPJovNE-435">
          <mxGeometry relative="1" as="geometry">
            <Array as="points">
              <mxPoint x="2049" y="79" />
            </Array>
          </mxGeometry>
        </mxCell>
        <mxCell id="cruECCJp9XkMZrPJovNE-471" value="" style="curved=1;startArrow=none;endArrow=block;exitX=0.5;exitY=1;entryX=0.5;entryY=0;rounded=0;" edge="1" parent="1" source="cruECCJp9XkMZrPJovNE-434" target="cruECCJp9XkMZrPJovNE-436">
          <mxGeometry relative="1" as="geometry">
            <Array as="points" />
          </mxGeometry>
        </mxCell>
        <mxCell id="cruECCJp9XkMZrPJovNE-472" value="" style="curved=1;startArrow=none;endArrow=block;exitX=1;exitY=0.93;entryX=0.5;entryY=0;rounded=0;" edge="1" parent="1" source="cruECCJp9XkMZrPJovNE-434" target="cruECCJp9XkMZrPJovNE-437">
          <mxGeometry relative="1" as="geometry">
            <Array as="points">
              <mxPoint x="2427" y="79" />
            </Array>
          </mxGeometry>
        </mxCell>
        <mxCell id="cruECCJp9XkMZrPJovNE-473" value="" style="curved=1;startArrow=none;endArrow=block;exitX=0.36;exitY=1;entryX=0.5;entryY=0;rounded=0;" edge="1" parent="1" source="cruECCJp9XkMZrPJovNE-438" target="cruECCJp9XkMZrPJovNE-439">
          <mxGeometry relative="1" as="geometry">
            <Array as="points">
              <mxPoint x="2622" y="79" />
            </Array>
          </mxGeometry>
        </mxCell>
        <mxCell id="cruECCJp9XkMZrPJovNE-474" value="" style="curved=1;startArrow=none;endArrow=block;exitX=0.64;exitY=1;entryX=0.51;entryY=0;rounded=0;" edge="1" parent="1" source="cruECCJp9XkMZrPJovNE-438" target="cruECCJp9XkMZrPJovNE-440">
          <mxGeometry relative="1" as="geometry">
            <Array as="points">
              <mxPoint x="2755" y="79" />
            </Array>
          </mxGeometry>
        </mxCell>
        <mxCell id="cruECCJp9XkMZrPJovNE-475" value="" style="curved=1;startArrow=none;endArrow=block;exitX=0.24;exitY=1;entryX=0.5;entryY=0;rounded=0;" edge="1" parent="1" source="cruECCJp9XkMZrPJovNE-441" target="cruECCJp9XkMZrPJovNE-442">
          <mxGeometry relative="1" as="geometry">
            <Array as="points">
              <mxPoint x="2900" y="79" />
            </Array>
          </mxGeometry>
        </mxCell>
        <mxCell id="cruECCJp9XkMZrPJovNE-476" value="" style="curved=1;startArrow=none;endArrow=block;exitX=0.5;exitY=1;entryX=0.49;entryY=0;rounded=0;" edge="1" parent="1" source="cruECCJp9XkMZrPJovNE-441" target="cruECCJp9XkMZrPJovNE-443">
          <mxGeometry relative="1" as="geometry">
            <Array as="points" />
          </mxGeometry>
        </mxCell>
        <mxCell id="cruECCJp9XkMZrPJovNE-477" value="" style="curved=1;startArrow=none;endArrow=block;exitX=0.74;exitY=1;entryX=0.5;entryY=0;rounded=0;" edge="1" parent="1" source="cruECCJp9XkMZrPJovNE-441" target="cruECCJp9XkMZrPJovNE-444">
          <mxGeometry relative="1" as="geometry">
            <Array as="points">
              <mxPoint x="3168" y="79" />
            </Array>
          </mxGeometry>
        </mxCell>
        <mxCell id="cruECCJp9XkMZrPJovNE-478" value="" style="curved=1;startArrow=none;endArrow=block;exitX=0.32;exitY=1;entryX=0.5;entryY=0;rounded=0;" edge="1" parent="1" source="cruECCJp9XkMZrPJovNE-445" target="cruECCJp9XkMZrPJovNE-446">
          <mxGeometry relative="1" as="geometry">
            <Array as="points">
              <mxPoint x="3317" y="79" />
            </Array>
          </mxGeometry>
        </mxCell>
        <mxCell id="cruECCJp9XkMZrPJovNE-479" value="" style="curved=1;startArrow=none;endArrow=block;exitX=0.68;exitY=1;entryX=0.5;entryY=0;rounded=0;" edge="1" parent="1" source="cruECCJp9XkMZrPJovNE-445" target="cruECCJp9XkMZrPJovNE-447">
          <mxGeometry relative="1" as="geometry">
            <Array as="points">
              <mxPoint x="3488" y="79" />
            </Array>
          </mxGeometry>
        </mxCell>
        <mxCell id="cruECCJp9XkMZrPJovNE-480" value="" style="curved=1;startArrow=none;endArrow=block;exitX=0.21;exitY=1;entryX=0.5;entryY=0;rounded=0;" edge="1" parent="1" source="cruECCJp9XkMZrPJovNE-448" target="cruECCJp9XkMZrPJovNE-449">
          <mxGeometry relative="1" as="geometry">
            <Array as="points">
              <mxPoint x="3657" y="79" />
            </Array>
          </mxGeometry>
        </mxCell>
        <mxCell id="cruECCJp9XkMZrPJovNE-481" value="" style="curved=1;startArrow=none;endArrow=block;exitX=0.5;exitY=1;entryX=0.5;entryY=0;rounded=0;" edge="1" parent="1" source="cruECCJp9XkMZrPJovNE-448" target="cruECCJp9XkMZrPJovNE-450">
          <mxGeometry relative="1" as="geometry">
            <Array as="points" />
          </mxGeometry>
        </mxCell>
        <mxCell id="cruECCJp9XkMZrPJovNE-482" value="" style="curved=1;startArrow=none;endArrow=block;exitX=0.85;exitY=1;entryX=0.5;entryY=0;rounded=0;" edge="1" parent="1" source="cruECCJp9XkMZrPJovNE-448" target="cruECCJp9XkMZrPJovNE-451">
          <mxGeometry relative="1" as="geometry">
            <Array as="points">
              <mxPoint x="3965" y="79" />
            </Array>
          </mxGeometry>
        </mxCell>
        <mxCell id="cruECCJp9XkMZrPJovNE-483" value="" style="curved=1;startArrow=none;endArrow=block;exitX=0.33;exitY=1;entryX=0.5;entryY=0;rounded=0;" edge="1" parent="1" source="cruECCJp9XkMZrPJovNE-452" target="cruECCJp9XkMZrPJovNE-453">
          <mxGeometry relative="1" as="geometry">
            <Array as="points">
              <mxPoint x="4131" y="79" />
            </Array>
          </mxGeometry>
        </mxCell>
        <mxCell id="cruECCJp9XkMZrPJovNE-484" value="" style="curved=1;startArrow=none;endArrow=block;exitX=0.67;exitY=1;entryX=0.5;entryY=0;rounded=0;" edge="1" parent="1" source="cruECCJp9XkMZrPJovNE-452" target="cruECCJp9XkMZrPJovNE-454">
          <mxGeometry relative="1" as="geometry">
            <Array as="points">
              <mxPoint x="4298" y="79" />
            </Array>
          </mxGeometry>
        </mxCell>
        <mxCell id="cruECCJp9XkMZrPJovNE-485" value="" style="curved=1;startArrow=none;endArrow=block;exitX=0.5;exitY=1;entryX=0.5;entryY=0;rounded=0;" edge="1" parent="1" source="cruECCJp9XkMZrPJovNE-455" target="cruECCJp9XkMZrPJovNE-456">
          <mxGeometry relative="1" as="geometry">
            <Array as="points" />
          </mxGeometry>
        </mxCell>
        <mxCell id="cruECCJp9XkMZrPJovNE-486" value="Dictionary" style="whiteSpace=wrap;strokeWidth=2;" vertex="1" parent="1">
          <mxGeometry x="4360" y="104" width="100" height="34" as="geometry" />
        </mxCell>
        <mxCell id="cruECCJp9XkMZrPJovNE-488" value="Location" style="whiteSpace=wrap;strokeWidth=2;" vertex="1" parent="1">
          <mxGeometry x="2079" y="104" width="59" height="34" as="geometry" />
        </mxCell>
      </root>
    </mxGraphModel>
  </diagram>
</mxfile>
